<svg width="64" height="64" viewBox="0 0 64 64" fill="none" xmlns="http://www.w3.org/2000/svg">
<path fill-rule="evenodd" clip-rule="evenodd" d="M32.069 5.33325C17.3783 5.33325 5.47168 17.2399 5.47168 31.9306C5.47168 43.6799 13.0903 53.6506 23.661 57.1706C24.9917 57.4106 25.4717 56.5919 25.4717 55.8879C25.4717 55.2559 25.4503 53.5812 25.4424 51.3652C18.0423 52.9706 16.4797 47.7972 16.4797 47.7972C15.2743 44.7253 13.5277 43.9066 13.5277 43.9066C11.1143 42.2559 13.7117 42.2932 13.7117 42.2932C16.3837 42.4799 17.7837 45.0346 17.7837 45.0346C20.157 49.0986 24.013 47.9252 25.5223 47.2452C25.765 45.5252 26.4583 44.3519 27.2157 43.6879C21.3117 43.0186 15.1037 40.7359 15.1037 30.5413C15.1037 27.6426 16.141 25.2639 17.8343 23.4079C17.565 22.7332 16.645 20.0266 18.0983 16.3679C18.0983 16.3679 20.3303 15.6506 25.4103 19.0906C27.5799 18.5004 29.8179 18.1991 32.0663 18.1946C34.3148 18.1982 36.5529 18.4995 38.7224 19.0906C43.805 15.6479 46.0344 16.3679 46.0344 16.3679C47.4877 20.0266 46.5757 22.7332 46.2984 23.4079C48.005 25.2639 49.029 27.6399 49.029 30.5413C49.029 40.7626 42.8157 43.0079 36.8903 43.6666C37.837 44.4879 38.6903 46.1093 38.6903 48.5893C38.6903 52.1466 38.6583 55.0159 38.6583 55.8879C38.6583 56.5999 39.133 57.4266 40.4903 57.1652C51.0557 53.6399 58.6664 43.6772 58.6664 31.9306C58.6664 17.2399 46.7597 5.33325 32.069 5.33325Z" fill="#CCCCCC"/>
</svg>
